<svg xmlns="http://www.w3.org/2000/svg" width="24" height="24" viewBox="0 0 24 24" fill="none" stroke="currentColor" stroke-width="2" stroke-linecap="round" stroke-linejoin="round"><path d="M12 3a6 6 0 0 0-6 6v4"/><path d="M18 13V9a6 6 0 0 0-6-6"/><path d="M6 13a2 2 0 0 0 2 2h1v-4H8a2 2 0 0 0-2 2z"/><path d="M18 11h-1v4h1a2 2 0 0 0 0-4z"/><path d="M9 19c1 .8 2 .9 3 .9s2-.1 3-.9"/><path d="M15 18h2a3 3 0 0 0 3-3v-1"/><circle cx="20" cy="18" r="2"/><path d="M20 15.5v1"/><path d="M20 19.5v1"/><path d="M17.5 18h1"/><path d="M21.5 18h1"/><path d="M18.4 16.4l.7.7"/><path d="M21 19l.7.7"/><path d="M21 17l.7-.7"/><path d="M18.4 19.6l.7-.7"/></svg>
